<svg xmlns="http://www.w3.org/2000/svg" width="1440" height="900"><path d="M728,451L850,453L839,328Z" fill="#76c476" stroke="#76c476" stroke-width="1.51"/><path d="M839,328L710,327L728,451Z" fill="#87cc7d" stroke="#87cc7d" stroke-width="1.51"/><path d="M728,451L849,577L850,453Z" fill="#61ba6c" stroke="#61ba6c" stroke-width="1.51"/><path d="M850,453L969,322L839,328Z" fill="#75c273" stroke="#75c273" stroke-width="1.51"/><path d="M839,328L839,193L710,327Z" fill="#94d182" stroke="#94d182" stroke-width="1.51"/><path d="M973,460L969,322L850,453Z" fill="#66b96c" stroke="#66b96c" stroke-width="1.51"/><path d="M849,577L973,460L850,453Z" fill="#54b365" stroke="#54b365" stroke-width="1.51"/><path d="M710,327L587,453L728,451Z" fill="#89cd7f" stroke="#89cd7f" stroke-width="1.51"/><path d="M728,451L718,587L849,577Z" fill="#5db86a" stroke="#5db86a" stroke-width="1.51"/><path d="M712,189L598,324L710,327Z" fill="#a5da8b" stroke="#a5da8b" stroke-width="1.51"/><path d="M598,574L718,587L728,451Z" fill="#6bbe70" stroke="#6bbe70" stroke-width="1.51"/><path d="M969,322L839,193L839,328Z" fill="#89cb7b" stroke="#89cb7b" stroke-width="1.51"/><path d="M598,324L587,453L710,327Z" fill="#99d485" stroke="#99d485" stroke-width="1.51"/><path d="M839,193L712,189L710,327Z" fill="#a3d88a" stroke="#a3d88a" stroke-width="1.51"/><path d="M587,453L598,574L728,451Z" fill="#7cc778" stroke="#7cc778" stroke-width="1.51"/><path d="M849,577L983,573L973,460Z" fill="#45aa5d" stroke="#45aa5d" stroke-width="1.51"/><path d="M1093,325L975,193L969,322Z" fill="#7ebc72" stroke="#7ebc72" stroke-width="1.51"/><path d="M972,697L983,573L849,577Z" fill="#379d54" stroke="#379d54" stroke-width="1.51"/><path d="M969,322L975,193L839,193Z" fill="#8dca7c" stroke="#8dca7c" stroke-width="1.51"/><path d="M839,193L843,79L712,189Z" fill="#a9d98e" stroke="#a9d98e" stroke-width="1.51"/><path d="M1093,325L969,322L973,460Z" fill="#6bb56a" stroke="#6bb56a" stroke-width="1.51"/><path d="M712,189L593,193L598,324Z" fill="#b4e092" stroke="#b4e092" stroke-width="1.51"/><path d="M598,324L474,452L587,453Z" fill="#9bd586" stroke="#9bd586" stroke-width="1.51"/><path d="M718,587L855,697L849,577Z" fill="#49a85d" stroke="#49a85d" stroke-width="1.51"/><path d="M723,712L855,697L718,587Z" fill="#4aa35b" stroke="#4aa35b" stroke-width="1.51"/><path d="M1096,461L1093,325L973,460Z" fill="#5bab62" stroke="#5bab62" stroke-width="1.51"/><path d="M983,573L1096,461L973,460Z" fill="#49a55c" stroke="#49a55c" stroke-width="1.51"/><path d="M975,193L843,79L839,193Z" fill="#9ed287" stroke="#9ed287" stroke-width="1.51"/><path d="M712,189L582,73L593,193Z" fill="#c1e59a" stroke="#c1e59a" stroke-width="1.51"/><path d="M587,453L474,452L598,574Z" fill="#88cc7d" stroke="#88cc7d" stroke-width="1.51"/><path d="M459,329L474,452L598,324Z" fill="#aadc8c" stroke="#aadc8c" stroke-width="1.51"/><path d="M585,699L723,712L718,587Z" fill="#59a961" stroke="#59a961" stroke-width="1.51"/><path d="M585,699L718,587L598,574Z" fill="#65b469" stroke="#65b469" stroke-width="1.51"/><path d="M593,193L459,329L598,324Z" fill="#b7e192" stroke="#b7e192" stroke-width="1.51"/><path d="M843,79L721,63L712,189Z" fill="#b4de96" stroke="#b4de96" stroke-width="1.51"/><path d="M593,193L454,186L459,329Z" fill="#c6e899" stroke="#c6e899" stroke-width="1.51"/><path d="M983,573L1094,569L1096,461Z" fill="#3c9d55" stroke="#3c9d55" stroke-width="1.51"/><path d="M1105,702L1094,569L983,573Z" fill="#2d904b" stroke="#2d904b" stroke-width="1.51"/><path d="M855,697L972,697L849,577Z" fill="#369b52" stroke="#369b52" stroke-width="1.51"/><path d="M972,818L972,697L855,697Z" fill="#288c4a" stroke="#288c4a" stroke-width="1.51"/><path d="M457,581L585,699L598,574Z" fill="#72ba6e" stroke="#72ba6e" stroke-width="1.51"/><path d="M975,193L979,61L843,79Z" fill="#9fd088" stroke="#9fd088" stroke-width="1.51"/><path d="M1093,325L1106,208L975,193Z" fill="#81ba72" stroke="#81ba72" stroke-width="1.51"/><path d="M1233,325L1106,208L1093,325Z" fill="#73af6a" stroke="#73af6a" stroke-width="1.51"/><path d="M1214,454L1093,325L1096,461Z" fill="#56a45f" stroke="#56a45f" stroke-width="1.51"/><path d="M474,452L457,581L598,574Z" fill="#84c97b" stroke="#84c97b" stroke-width="1.51"/><path d="M340,452L457,581L474,452Z" fill="#98d285" stroke="#98d285" stroke-width="1.51"/><path d="M721,63L582,73L712,189Z" fill="#c0e49d" stroke="#c0e49d" stroke-width="1.51"/><path d="M858,-54L713,-52L721,63Z" fill="#b7dfaa" stroke="#b7dfaa" stroke-width="1.51"/><path d="M1093,64L979,61L975,193Z" fill="#98c782" stroke="#98c782" stroke-width="1.51"/><path d="M582,73L454,186L593,193Z" fill="#cdeba0" stroke="#cdeba0" stroke-width="1.51"/><path d="M459,329L340,452L474,452Z" fill="#aadc8d" stroke="#aadc8d" stroke-width="1.51"/><path d="M604,834L727,817L723,712Z" fill="#4b9859" stroke="#4b9859" stroke-width="1.51"/><path d="M723,712L847,823L855,697Z" fill="#3b9553" stroke="#3b9553" stroke-width="1.51"/><path d="M1094,569L1214,454L1096,461Z" fill="#429a56" stroke="#429a56" stroke-width="1.51"/><path d="M1225,584L1214,454L1094,569Z" fill="#339250" stroke="#339250" stroke-width="1.51"/><path d="M727,817L847,823L723,712Z" fill="#3e9354" stroke="#3e9354" stroke-width="1.51"/><path d="M972,697L1105,702L983,573Z" fill="#2b8d49" stroke="#2b8d49" stroke-width="1.51"/><path d="M972,818L1105,702L972,697Z" fill="#218344" stroke="#218344" stroke-width="1.51"/><path d="M457,581L460,695L585,699Z" fill="#74b56c" stroke="#74b56c" stroke-width="1.51"/><path d="M585,699L604,834L723,712Z" fill="#56a05e" stroke="#56a05e" stroke-width="1.51"/><path d="M1214,454L1233,325L1093,325Z" fill="#5fa461" stroke="#5fa461" stroke-width="1.51"/><path d="M1106,208L1093,64L975,193Z" fill="#8fbf7a" stroke="#8fbf7a" stroke-width="1.51"/><path d="M1221,60L1093,64L1106,208Z" fill="#8fbb7a" stroke="#8fbb7a" stroke-width="1.51"/><path d="M350,192L346,325L459,329Z" fill="#cbea9c" stroke="#cbea9c" stroke-width="1.51"/><path d="M457,581L335,698L460,695Z" fill="#7eb970" stroke="#7eb970" stroke-width="1.51"/><path d="M346,325L340,452L459,329Z" fill="#bae394" stroke="#bae394" stroke-width="1.51"/><path d="M582,73L469,57L454,186Z" fill="#d7efa7" stroke="#d7efa7" stroke-width="1.51"/><path d="M721,63L600,-64L582,73Z" fill="#c9e8af" stroke="#c9e8af" stroke-width="1.51"/><path d="M858,-54L721,63L843,79Z" fill="#b1dca1" stroke="#b1dca1" stroke-width="1.51"/><path d="M858,-54L843,79L979,61Z" fill="#a5d59a" stroke="#a5d59a" stroke-width="1.51"/><path d="M969,-56L858,-54L979,61Z" fill="#a2d19c" stroke="#a2d19c" stroke-width="1.51"/><path d="M847,823L972,818L855,697Z" fill="#288a4b" stroke="#288a4b" stroke-width="1.51"/><path d="M454,186L350,192L459,329Z" fill="#d0ec9e" stroke="#d0ec9e" stroke-width="1.51"/><path d="M600,-64L469,57L582,73Z" fill="#d4edb4" stroke="#d4edb4" stroke-width="1.51"/><path d="M1233,325L1222,208L1106,208Z" fill="#78ae6c" stroke="#78ae6c" stroke-width="1.51"/><path d="M1105,702L1225,584L1094,569Z" fill="#268847" stroke="#268847" stroke-width="1.51"/><path d="M1214,454L1351,447L1233,325Z" fill="#4f995b" stroke="#4f995b" stroke-width="1.51"/><path d="M472,818L604,834L585,699Z" fill="#5fa160" stroke="#5fa160" stroke-width="1.51"/><path d="M727,817L834,958L847,823Z" fill="#34834b" stroke="#34834b" stroke-width="1.51"/><path d="M1111,946L1107,825L972,818Z" fill="#146b39" stroke="#146b39" stroke-width="1.51"/><path d="M340,452L344,571L457,581Z" fill="#95d082" stroke="#95d082" stroke-width="1.51"/><path d="M347,68L350,192L454,186Z" fill="#e0f3a9" stroke="#e0f3a9" stroke-width="1.51"/><path d="M346,325L221,438L340,452Z" fill="#b9e295" stroke="#b9e295" stroke-width="1.51"/><path d="M1093,64L969,-56L979,61Z" fill="#9bc892" stroke="#9bc892" stroke-width="1.51"/><path d="M707,-185L600,-64L713,-52Z" fill="#c3e6b1" stroke="#c3e6b1" stroke-width="1.51"/><path d="M713,-52L600,-64L721,63Z" fill="#c3e5b1" stroke="#c3e5b1" stroke-width="1.51"/><path d="M707,-185L713,-52L837,-190Z" fill="#b9e0ab" stroke="#b9e0ab" stroke-width="1.51"/><path d="M460,695L472,818L585,699Z" fill="#6aa965" stroke="#6aa965" stroke-width="1.51"/><path d="M347,828L472,818L460,695Z" fill="#70a867" stroke="#70a867" stroke-width="1.51"/><path d="M972,818L1107,825L1105,702Z" fill="#17783f" stroke="#17783f" stroke-width="1.51"/><path d="M1105,702L1232,699L1225,584Z" fill="#1d7e41" stroke="#1d7e41" stroke-width="1.51"/><path d="M978,965L972,818L847,823Z" fill="#207842" stroke="#207842" stroke-width="1.51"/><path d="M1230,821L1232,699L1105,702Z" fill="#11733c" stroke="#11733c" stroke-width="1.51"/><path d="M1225,584L1351,447L1214,454Z" fill="#399052" stroke="#399052" stroke-width="1.51"/><path d="M1093,64L1101,-70L969,-56Z" fill="#98c493" stroke="#98c493" stroke-width="1.51"/><path d="M1222,208L1221,60L1106,208Z" fill="#86b473" stroke="#86b473" stroke-width="1.51"/><path d="M1348,196L1221,60L1222,208Z" fill="#81ae71" stroke="#81ae71" stroke-width="1.51"/><path d="M215,581L335,698L344,571Z" fill="#90c67c" stroke="#90c67c" stroke-width="1.51"/><path d="M344,571L335,698L457,581Z" fill="#88c377" stroke="#88c377" stroke-width="1.51"/><path d="M469,57L347,68L454,186Z" fill="#e1f3ac" stroke="#e1f3ac" stroke-width="1.51"/><path d="M208,312L221,438L346,325Z" fill="#c7e89c" stroke="#c7e89c" stroke-width="1.51"/><path d="M340,452L215,581L344,571Z" fill="#9dd386" stroke="#9dd386" stroke-width="1.51"/><path d="M347,-47L347,68L469,57Z" fill="#e8f6bd" stroke="#e8f6bd" stroke-width="1.51"/><path d="M837,-190L713,-52L858,-54Z" fill="#b2dda7" stroke="#b2dda7" stroke-width="1.51"/><path d="M1225,-45L1101,-70L1093,64Z" fill="#92bc8e" stroke="#92bc8e" stroke-width="1.51"/><path d="M1346,588L1351,447L1225,584Z" fill="#2b864a" stroke="#2b864a" stroke-width="1.51"/><path d="M1233,325L1348,196L1222,208Z" fill="#74a869" stroke="#74a869" stroke-width="1.51"/><path d="M720,956L834,958L727,817Z" fill="#39804c" stroke="#39804c" stroke-width="1.51"/><path d="M720,956L727,817L604,834Z" fill="#468a53" stroke="#468a53" stroke-width="1.51"/><path d="M597,967L720,956L604,834Z" fill="#4b8753" stroke="#4b8753" stroke-width="1.51"/><path d="M600,-64L454,-63L469,57Z" fill="#daf0bb" stroke="#daf0bb" stroke-width="1.51"/><path d="M587,-182L454,-63L600,-64Z" fill="#d5eeb9" stroke="#d5eeb9" stroke-width="1.51"/><path d="M208,312L346,325L350,192Z" fill="#d4eea1" stroke="#d4eea1" stroke-width="1.51"/><path d="M1351,447L1357,329L1233,325Z" fill="#58985c" stroke="#58985c" stroke-width="1.51"/><path d="M837,-190L858,-54L962,-187Z" fill="#a7d7a0" stroke="#a7d7a0" stroke-width="1.51"/><path d="M962,-187L858,-54L969,-56Z" fill="#a3d29d" stroke="#a3d29d" stroke-width="1.51"/><path d="M207,189L208,312L350,192Z" fill="#e1f3a9" stroke="#e1f3a9" stroke-width="1.51"/><path d="M1351,447L1472,437L1357,329Z" fill="#4c8c55" stroke="#4c8c55" stroke-width="1.51"/><path d="M1232,699L1346,588L1225,584Z" fill="#1c7e42" stroke="#1c7e42" stroke-width="1.51"/><path d="M1349,695L1346,588L1232,699Z" fill="#16733c" stroke="#16733c" stroke-width="1.51"/><path d="M1357,329L1348,196L1233,325Z" fill="#6aa063" stroke="#6aa063" stroke-width="1.51"/><path d="M1221,60L1225,-45L1093,64Z" fill="#8fb888" stroke="#8fb888" stroke-width="1.51"/><path d="M1107,825L1230,821L1105,702Z" fill="#0e713b" stroke="#0e713b" stroke-width="1.51"/><path d="M834,958L978,965L847,823Z" fill="#247743" stroke="#247743" stroke-width="1.51"/><path d="M849,1075L978,965L834,958Z" fill="#247743" stroke="#247743" stroke-width="1.51"/><path d="M469,962L597,967L604,834Z" fill="#578d58" stroke="#578d58" stroke-width="1.51"/><path d="M722,1091L849,1075L834,958Z" fill="#337d49" stroke="#337d49" stroke-width="1.51"/><path d="M469,962L604,834L472,818Z" fill="#5f945d" stroke="#5f945d" stroke-width="1.51"/><path d="M221,438L215,581L340,452Z" fill="#aada8e" stroke="#aada8e" stroke-width="1.51"/><path d="M335,698L347,828L460,695Z" fill="#7ab06c" stroke="#7ab06c" stroke-width="1.51"/><path d="M95,454L215,581L221,438Z" fill="#b0dc94" stroke="#b0dc94" stroke-width="1.51"/><path d="M1101,-70L962,-187L969,-56Z" fill="#9cc996" stroke="#9cc996" stroke-width="1.51"/><path d="M464,-185L587,-182L707,-185Z" fill="#d0ebb7" stroke="#d0ebb7" stroke-width="1.51"/><path d="M707,-185L587,-182L600,-64Z" fill="#cae8b3" stroke="#cae8b3" stroke-width="1.51"/><path d="M1111,946L1230,821L1107,825Z" fill="#0c6435" stroke="#0c6435" stroke-width="1.51"/><path d="M223,66L350,192L347,68Z" fill="#edf8b2" stroke="#edf8b2" stroke-width="1.51"/><path d="M223,66L207,189L350,192Z" fill="#ecf8b0" stroke="#ecf8b0" stroke-width="1.51"/><path d="M1346,62L1225,-45L1221,60Z" fill="#89b185" stroke="#89b185" stroke-width="1.51"/><path d="M1101,-70L1097,-190L962,-187Z" fill="#99c493" stroke="#99c493" stroke-width="1.51"/><path d="M210,823L347,828L335,698Z" fill="#7dad6e" stroke="#7dad6e" stroke-width="1.51"/><path d="M454,-63L347,-47L469,57Z" fill="#e5f4c0" stroke="#e5f4c0" stroke-width="1.51"/><path d="M350,-181L347,-47L454,-63Z" fill="#e9f7c2" stroke="#e9f7c2" stroke-width="1.51"/><path d="M1341,818L1349,695L1232,699Z" fill="#096937" stroke="#096937" stroke-width="1.51"/><path d="M1467,584L1472,437L1351,447Z" fill="#36804b" stroke="#36804b" stroke-width="1.51"/><path d="M978,965L1111,946L972,818Z" fill="#176a3a" stroke="#176a3a" stroke-width="1.51"/><path d="M1480,79L1346,62L1348,196Z" fill="#80a16f" stroke="#80a16f" stroke-width="1.51"/><path d="M1348,196L1346,62L1221,60Z" fill="#85ab74" stroke="#85ab74" stroke-width="1.51"/><path d="M347,828L469,962L472,818Z" fill="#699861" stroke="#699861" stroke-width="1.51"/><path d="M347,828L331,969L469,962Z" fill="#6d9661" stroke="#6d9661" stroke-width="1.51"/><path d="M215,581L209,695L335,698Z" fill="#8fc07a" stroke="#8fc07a" stroke-width="1.51"/><path d="M81,568L209,695L215,581Z" fill="#9bca85" stroke="#9bca85" stroke-width="1.51"/><path d="M95,454L221,438L88,329Z" fill="#c4e6a2" stroke="#c4e6a2" stroke-width="1.51"/><path d="M347,-47L223,66L347,68Z" fill="#f0f9c2" stroke="#f0f9c2" stroke-width="1.51"/><path d="M1222,-195L1101,-70L1225,-45Z" fill="#8fb88c" stroke="#8fb88c" stroke-width="1.51"/><path d="M1222,-195L1097,-190L1101,-70Z" fill="#92bc8e" stroke="#92bc8e" stroke-width="1.51"/><path d="M962,-187L1097,-190L837,-190Z" fill="#a0ce9a" stroke="#a0ce9a" stroke-width="1.51"/><path d="M587,-182L464,-185L454,-63Z" fill="#dbf0bb" stroke="#dbf0bb" stroke-width="1.51"/><path d="M347,-47L218,-53L223,66Z" fill="#f4fbca" stroke="#f4fbca" stroke-width="1.51"/><path d="M837,-190L464,-185L707,-185Z" fill="#c4e6b1" stroke="#c4e6b1" stroke-width="1.51"/><path d="M722,1091L720,956L600,1072Z" fill="#458552" stroke="#458552" stroke-width="1.51"/><path d="M722,1091L834,958L720,956Z" fill="#39804c" stroke="#39804c" stroke-width="1.51"/><path d="M978,965L1104,1087L1111,946Z" fill="#136537" stroke="#136537" stroke-width="1.51"/><path d="M1467,584L1351,447L1346,588Z" fill="#297e47" stroke="#297e47" stroke-width="1.51"/><path d="M1357,329L1482,193L1348,196Z" fill="#6e9a63" stroke="#6e9a63" stroke-width="1.51"/><path d="M1349,695L1467,584L1346,588Z" fill="#1a723e" stroke="#1a723e" stroke-width="1.51"/><path d="M1230,821L1341,818L1232,699Z" fill="#016837" stroke="#016837" stroke-width="1.51"/><path d="M1345,961L1341,818L1230,821Z" fill="#005730" stroke="#005730" stroke-width="1.51"/><path d="M88,329L221,438L208,312Z" fill="#cdeaa2" stroke="#cdeaa2" stroke-width="1.51"/><path d="M88,329L208,312L99,206Z" fill="#def2ae" stroke="#def2ae" stroke-width="1.51"/><path d="M1472,437L1486,334L1357,329Z" fill="#538b56" stroke="#538b56" stroke-width="1.51"/><path d="M600,1072L720,956L597,967Z" fill="#4b8753" stroke="#4b8753" stroke-width="1.51"/><path d="M474,1072L600,1072L597,967Z" fill="#578d58" stroke="#578d58" stroke-width="1.51"/><path d="M1472,437L1605,459L1486,334Z" fill="#498652" stroke="#498652" stroke-width="1.51"/><path d="M1489,716L1467,584L1349,695Z" fill="#136637" stroke="#136637" stroke-width="1.51"/><path d="M99,206L208,312L207,189Z" fill="#e6f5ae" stroke="#e6f5ae" stroke-width="1.51"/><path d="M1111,946L1227,967L1230,821Z" fill="#075b32" stroke="#075b32" stroke-width="1.51"/><path d="M849,1075L984,1078L978,965Z" fill="#1e7240" stroke="#1e7240" stroke-width="1.51"/><path d="M722,1091L984,1078L849,1075Z" fill="#2a7946" stroke="#2a7946" stroke-width="1.51"/><path d="M1346,62L1351,-50L1225,-45Z" fill="#88ad87" stroke="#88ad87" stroke-width="1.51"/><path d="M1480,79L1351,-50L1346,62Z" fill="#83a37e" stroke="#83a37e" stroke-width="1.51"/><path d="M78,67L99,206L207,189Z" fill="#f3fbbc" stroke="#f3fbbc" stroke-width="1.51"/><path d="M1104,1087L1227,967L1111,946Z" fill="#0b5e33" stroke="#0b5e33" stroke-width="1.51"/><path d="M209,695L210,823L335,698Z" fill="#86b473" stroke="#86b473" stroke-width="1.51"/><path d="M469,962L474,1072L597,967Z" fill="#5d8f5a" stroke="#5d8f5a" stroke-width="1.51"/><path d="M76,708L210,823L209,695Z" fill="#8cb67a" stroke="#8cb67a" stroke-width="1.51"/><path d="M1486,334L1482,193L1357,329Z" fill="#64925e" stroke="#64925e" stroke-width="1.51"/><path d="M223,66L78,67L207,189Z" fill="#f8fcbc" stroke="#f8fcbc" stroke-width="1.51"/><path d="M464,-185L350,-181L454,-63Z" fill="#e5f4c0" stroke="#e5f4c0" stroke-width="1.51"/><path d="M218,-175L218,-53L347,-47Z" fill="#f5fbca" stroke="#f5fbca" stroke-width="1.51"/><path d="M95,454L81,568L215,581Z" fill="#a8d893" stroke="#a8d893" stroke-width="1.51"/><path d="M-29,448L81,568L95,454Z" fill="#b4dda3" stroke="#b4dda3" stroke-width="1.51"/><path d="M1097,-190L1222,-195L837,-190Z" fill="#99c493" stroke="#99c493" stroke-width="1.51"/><path d="M1360,-182L1222,-195L1225,-45Z" fill="#8ab189" stroke="#8ab189" stroke-width="1.51"/><path d="M217,946L331,969L347,828Z" fill="#749866" stroke="#749866" stroke-width="1.51"/><path d="M331,1070L474,1072L469,962Z" fill="#68935f" stroke="#68935f" stroke-width="1.51"/><path d="M600,1072L474,1072L722,1091Z" fill="#518a56" stroke="#518a56" stroke-width="1.51"/><path d="M1351,-50L1360,-182L1225,-45Z" fill="#88ac87" stroke="#88ac87" stroke-width="1.51"/><path d="M1482,193L1480,79L1348,196Z" fill="#789a68" stroke="#789a68" stroke-width="1.51"/><path d="M1615,197L1480,79L1482,193Z" fill="#789a68" stroke="#789a68" stroke-width="1.51"/><path d="M984,1078L1104,1087L978,965Z" fill="#17693a" stroke="#17693a" stroke-width="1.51"/><path d="M722,1091L1104,1087L984,1078Z" fill="#1e7240" stroke="#1e7240" stroke-width="1.51"/><path d="M1474,839L1489,716L1341,818Z" fill="#005630" stroke="#005630" stroke-width="1.51"/><path d="M1341,818L1489,716L1349,695Z" fill="#076034" stroke="#076034" stroke-width="1.51"/><path d="M1467,584L1605,459L1472,437Z" fill="#347e4a" stroke="#347e4a" stroke-width="1.51"/><path d="M1345,961L1230,821L1227,967Z" fill="#00562f" stroke="#00562f" stroke-width="1.51"/><path d="M-34,577L76,708L81,568Z" fill="#9dcb93" stroke="#9dcb93" stroke-width="1.51"/><path d="M81,568L76,708L209,695Z" fill="#96c385" stroke="#96c385" stroke-width="1.51"/><path d="M210,823L217,946L347,828Z" fill="#7aa06a" stroke="#7aa06a" stroke-width="1.51"/><path d="M74,-70L78,67L218,-53Z" fill="#fdfed6" stroke="#fdfed6" stroke-width="1.51"/><path d="M218,-53L78,67L223,66Z" fill="#fafdcb" stroke="#fafdcb" stroke-width="1.51"/><path d="M-30,319L-29,448L88,329Z" fill="#d0ebb6" stroke="#d0ebb6" stroke-width="1.51"/><path d="M88,329L-29,448L95,454Z" fill="#c5e6ab" stroke="#c5e6ab" stroke-width="1.51"/><path d="M1343,1075L1345,961L1227,967Z" fill="#00522e" stroke="#00522e" stroke-width="1.51"/><path d="M96,959L217,946L210,823Z" fill="#7e9c6d" stroke="#7e9c6d" stroke-width="1.51"/><path d="M331,969L331,1070L469,962Z" fill="#6d9662" stroke="#6d9662" stroke-width="1.51"/><path d="M350,-181L218,-175L347,-47Z" fill="#f1fac8" stroke="#f1fac8" stroke-width="1.51"/><path d="M1492,-60L1360,-182L1351,-50Z" fill="#83a283" stroke="#83a283" stroke-width="1.51"/><path d="M1104,1087L1225,1081L1227,967Z" fill="#075b32" stroke="#075b32" stroke-width="1.51"/><path d="M1345,961L1474,839L1341,818Z" fill="#004e2c" stroke="#004e2c" stroke-width="1.51"/><path d="M1484,947L1474,839L1345,961Z" fill="#004529" stroke="#004529" stroke-width="1.51"/><path d="M474,1072L203,1087L722,1091Z" fill="#63915d" stroke="#63915d" stroke-width="1.51"/><path d="M217,946L331,1070L331,969Z" fill="#759866" stroke="#759866" stroke-width="1.51"/><path d="M1619,570L1467,584L1596,708Z" fill="#1a6d3c" stroke="#1a6d3c" stroke-width="1.51"/><path d="M1619,570L1605,459L1467,584Z" fill="#287945" stroke="#287945" stroke-width="1.51"/><path d="M1486,334L1611,319L1482,193Z" fill="#65925e" stroke="#65925e" stroke-width="1.51"/><path d="M-30,319L88,329L99,206Z" fill="#e0f2b8" stroke="#e0f2b8" stroke-width="1.51"/><path d="M-40,200L-30,319L99,206Z" fill="#e9f6c1" stroke="#e9f6c1" stroke-width="1.51"/><path d="M1605,459L1611,319L1486,334Z" fill="#528a56" stroke="#528a56" stroke-width="1.51"/><path d="M1480,79L1492,-60L1351,-50Z" fill="#819e81" stroke="#819e81" stroke-width="1.51"/><path d="M217,946L203,1087L331,1070Z" fill="#789a68" stroke="#789a68" stroke-width="1.51"/><path d="M76,708L75,821L210,823Z" fill="#88b17c" stroke="#88b17c" stroke-width="1.51"/><path d="M-30,711L75,821L76,708Z" fill="#8eb787" stroke="#8eb787" stroke-width="1.51"/><path d="M1611,63L1492,-60L1480,79Z" fill="#809d7c" stroke="#809d7c" stroke-width="1.51"/><path d="M-29,448L-34,577L81,568Z" fill="#acdaa3" stroke="#acdaa3" stroke-width="1.51"/><path d="M-174,447L-34,577L-29,448Z" fill="#b4dea9" stroke="#b4dea9" stroke-width="1.51"/><path d="M1605,459L1733,447L1611,319Z" fill="#498753" stroke="#498753" stroke-width="1.51"/><path d="M1596,708L1467,584L1489,716Z" fill="#136536" stroke="#136536" stroke-width="1.51"/><path d="M1611,319L1615,197L1482,193Z" fill="#6d9662" stroke="#6d9662" stroke-width="1.51"/><path d="M1723,185L1615,197L1611,319Z" fill="#6e9662" stroke="#6e9662" stroke-width="1.51"/><path d="M-30,319L-165,324L-29,448Z" fill="#d1ecb7" stroke="#d1ecb7" stroke-width="1.51"/><path d="M78,67L-40,200L99,206Z" fill="#f4fbc5" stroke="#f4fbc5" stroke-width="1.51"/><path d="M-46,82L-40,200L78,67Z" fill="#fbfdcf" stroke="#fbfdcf" stroke-width="1.51"/><path d="M98,-173L74,-70L218,-53Z" fill="#fcfed5" stroke="#fcfed5" stroke-width="1.51"/><path d="M1596,831L1596,708L1489,716Z" fill="#065b32" stroke="#065b32" stroke-width="1.51"/><path d="M1474,839L1596,831L1489,716Z" fill="#00552f" stroke="#00552f" stroke-width="1.51"/><path d="M1225,1081L1343,1075L1227,967Z" fill="#005630" stroke="#005630" stroke-width="1.51"/><path d="M-34,577L-30,711L76,708Z" fill="#98c391" stroke="#98c391" stroke-width="1.51"/><path d="M1615,197L1611,63L1480,79Z" fill="#7e9c6d" stroke="#7e9c6d" stroke-width="1.51"/><path d="M1343,1075L1484,947L1345,961Z" fill="#00492b" stroke="#00492b" stroke-width="1.51"/><path d="M-40,200L-165,324L-30,319Z" fill="#e1f3be" stroke="#e1f3be" stroke-width="1.51"/><path d="M-48,-68L-46,82L78,67Z" fill="#fefee0" stroke="#fefee0" stroke-width="1.51"/><path d="M75,821L96,959L210,823Z" fill="#82a375" stroke="#82a375" stroke-width="1.51"/><path d="M-32,946L96,959L75,821Z" fill="#809d7c" stroke="#809d7c" stroke-width="1.51"/><path d="M74,-70L-48,-68L78,67Z" fill="#fffee1" stroke="#fffee1" stroke-width="1.51"/><path d="M218,-175L98,-173L218,-53Z" fill="#fbfdcf" stroke="#fbfdcf" stroke-width="1.51"/><path d="M-29,-195L98,-173L218,-175Z" fill="#fdfeda" stroke="#fdfeda" stroke-width="1.51"/><path d="M-29,-195L218,-175L350,-181Z" fill="#fbfdcf" stroke="#fbfdcf" stroke-width="1.51"/><path d="M1607,-177L1482,-186L1492,-60Z" fill="#819e81" stroke="#819e81" stroke-width="1.51"/><path d="M1492,-60L1482,-186L1360,-182Z" fill="#819e81" stroke="#819e81" stroke-width="1.51"/><path d="M1360,-182L1482,-186L1222,-195Z" fill="#85a785" stroke="#85a785" stroke-width="1.51"/><path d="M96,959L203,1087L217,946Z" fill="#7e9c6d" stroke="#7e9c6d" stroke-width="1.51"/><path d="M331,1070L203,1087L474,1072Z" fill="#719764" stroke="#719764" stroke-width="1.51"/><path d="M1484,947L1596,831L1474,839Z" fill="#00492b" stroke="#00492b" stroke-width="1.51"/><path d="M1741,584L1733,447L1619,570Z" fill="#2a7946" stroke="#2a7946" stroke-width="1.51"/><path d="M96,959L73,1077L203,1087Z" fill="#7f9d73" stroke="#7f9d73" stroke-width="1.51"/><path d="M-30,711L-30,818L75,821Z" fill="#8bb289" stroke="#8bb289" stroke-width="1.51"/><path d="M-171,690L-30,818L-30,711Z" fill="#8fb88c" stroke="#8fb88c" stroke-width="1.51"/><path d="M-171,690L-30,711L-34,577Z" fill="#98c493" stroke="#98c493" stroke-width="1.51"/><path d="M1611,63L1612,-52L1492,-60Z" fill="#819e81" stroke="#819e81" stroke-width="1.51"/><path d="M1724,-47L1612,-52L1611,63Z" fill="#819e81" stroke="#819e81" stroke-width="1.51"/><path d="M1741,584L1619,570L1729,693Z" fill="#1a6d3d" stroke="#1a6d3d" stroke-width="1.51"/><path d="M1619,570L1733,447L1605,459Z" fill="#357e4a" stroke="#357e4a" stroke-width="1.51"/><path d="M1615,197L1723,185L1611,63Z" fill="#799a69" stroke="#799a69" stroke-width="1.51"/><path d="M1733,447L1733,333L1611,319Z" fill="#538b57" stroke="#538b57" stroke-width="1.51"/><path d="M1733,333L1723,185L1611,319Z" fill="#65925e" stroke="#65925e" stroke-width="1.51"/><path d="M-29,-195L-48,-68L74,-70Z" fill="#ffffe5" stroke="#ffffe5" stroke-width="1.51"/><path d="M-180,192L-165,324L-40,200Z" fill="#eaf7c2" stroke="#eaf7c2" stroke-width="1.51"/><path d="M-180,192L-40,200L-46,82Z" fill="#f5fbcb" stroke="#f5fbcb" stroke-width="1.51"/><path d="M-165,324L-174,447L-29,448Z" fill="#c7e7b2" stroke="#c7e7b2" stroke-width="1.51"/><path d="M1733,447L1741,584L1733,333Z" fill="#3e824f" stroke="#3e824f" stroke-width="1.51"/><path d="M1729,693L1619,570L1596,708Z" fill="#146638" stroke="#146638" stroke-width="1.51"/><path d="M-174,447L-169,580L-34,577Z" fill="#abd9a3" stroke="#abd9a3" stroke-width="1.51"/><path d="M1742,829L1729,693L1596,708Z" fill="#075b32" stroke="#075b32" stroke-width="1.51"/><path d="M1596,831L1742,829L1596,708Z" fill="#005630" stroke="#005630" stroke-width="1.51"/><path d="M1484,947L1609,964L1596,831Z" fill="#004529" stroke="#004529" stroke-width="1.51"/><path d="M1343,1075L1483,1096L1484,947Z" fill="#004529" stroke="#004529" stroke-width="1.51"/><path d="M1225,1081L1483,1096L1343,1075Z" fill="#004d2c" stroke="#004d2c" stroke-width="1.51"/><path d="M1104,1087L1483,1096L1225,1081Z" fill="#00552f" stroke="#00552f" stroke-width="1.51"/><path d="M722,1091L1483,1096L1104,1087Z" fill="#0f6235" stroke="#0f6235" stroke-width="1.51"/><path d="M-32,946L73,1077L96,959Z" fill="#809d7c" stroke="#809d7c" stroke-width="1.51"/><path d="M-32,946L75,821L-30,818Z" fill="#84a583" stroke="#84a583" stroke-width="1.51"/><path d="M-176,841L-32,946L-30,818Z" fill="#84a483" stroke="#84a483" stroke-width="1.51"/><path d="M-165,324L-180,192L-174,447Z" fill="#daf0bb" stroke="#daf0bb" stroke-width="1.51"/><path d="M-171,78L-180,192L-46,82Z" fill="#fbfdcf" stroke="#fbfdcf" stroke-width="1.51"/><path d="M1483,1096L1609,964L1484,947Z" fill="#004529" stroke="#004529" stroke-width="1.51"/><path d="M1612,-52L1607,-177L1492,-60Z" fill="#819e81" stroke="#819e81" stroke-width="1.51"/><path d="M1724,-47L1607,-177L1612,-52Z" fill="#819e81" stroke="#819e81" stroke-width="1.51"/><path d="M-169,580L-171,690L-34,577Z" fill="#9ecc99" stroke="#9ecc99" stroke-width="1.51"/><path d="M-174,447L-171,690L-169,580Z" fill="#a4d49e" stroke="#a4d49e" stroke-width="1.51"/><path d="M-176,841L-171,690L-174,447Z" fill="#98c493" stroke="#98c493" stroke-width="1.51"/><path d="M1723,185L1741,63L1611,63Z" fill="#7e9c6e" stroke="#7e9c6e" stroke-width="1.51"/><path d="M1733,333L1741,63L1723,185Z" fill="#739865" stroke="#739865" stroke-width="1.51"/><path d="M1741,584L1741,63L1733,333Z" fill="#5c8e5a" stroke="#5c8e5a" stroke-width="1.51"/><path d="M-48,-68L-171,78L-46,82Z" fill="#fefedf" stroke="#fefedf" stroke-width="1.51"/><path d="M98,-173L-29,-195L74,-70Z" fill="#fefedf" stroke="#fefedf" stroke-width="1.51"/><path d="M464,-185L-29,-195L350,-181Z" fill="#f4fbca" stroke="#f4fbca" stroke-width="1.51"/><path d="M837,-190L-29,-195L464,-185Z" fill="#e4f4c0" stroke="#e4f4c0" stroke-width="1.51"/><path d="M1222,-195L-29,-195L837,-190Z" fill="#c3e6b1" stroke="#c3e6b1" stroke-width="1.51"/><path d="M-165,-69L-171,78L-48,-68Z" fill="#ffffe5" stroke="#ffffe5" stroke-width="1.51"/><path d="M1741,63L1724,-47L1611,63Z" fill="#809d7c" stroke="#809d7c" stroke-width="1.51"/><path d="M1722,962L1596,831L1609,964Z" fill="#004529" stroke="#004529" stroke-width="1.51"/><path d="M1722,962L1742,829L1596,831Z" fill="#00492b" stroke="#00492b" stroke-width="1.51"/><path d="M1729,693L1742,829L1741,584Z" fill="#0d6034" stroke="#0d6034" stroke-width="1.51"/><path d="M1741,584L1744,1089L1741,63Z" fill="#1f7340" stroke="#1f7340" stroke-width="1.51"/><path d="M-158,-177L-165,-69L-48,-68Z" fill="#ffffe5" stroke="#ffffe5" stroke-width="1.51"/><path d="M-171,78L-165,-69L-180,192Z" fill="#fdfed8" stroke="#fdfed8" stroke-width="1.51"/><path d="M-32,946L-35,1081L73,1077Z" fill="#819e81" stroke="#819e81" stroke-width="1.51"/><path d="M-171,690L-176,841L-30,818Z" fill="#8bb289" stroke="#8bb289" stroke-width="1.51"/><path d="M-180,192L-176,841L-174,447Z" fill="#b4dea8" stroke="#b4dea8" stroke-width="1.51"/><path d="M-155,950L-35,1081L-32,946Z" fill="#819e81" stroke="#819e81" stroke-width="1.51"/><path d="M73,1077L-35,1081L203,1087Z" fill="#809d78" stroke="#809d78" stroke-width="1.51"/><path d="M1483,1096L1614,1086L1609,964Z" fill="#004529" stroke="#004529" stroke-width="1.51"/><path d="M1614,1086L1722,962L1609,964Z" fill="#004529" stroke="#004529" stroke-width="1.51"/><path d="M-176,841L-155,950L-32,946Z" fill="#819e81" stroke="#819e81" stroke-width="1.51"/><path d="M1724,-47L1723,-193L1607,-177Z" fill="#819e81" stroke="#819e81" stroke-width="1.51"/><path d="M1607,-177L1723,-193L1482,-186Z" fill="#819e81" stroke="#819e81" stroke-width="1.51"/><path d="M1482,-186L1723,-193L1222,-195Z" fill="#819e81" stroke="#819e81" stroke-width="1.51"/><path d="M1741,63L1723,-193L1724,-47Z" fill="#819e81" stroke="#819e81" stroke-width="1.51"/><path d="M-29,-195L-158,-177L-48,-68Z" fill="#ffffe5" stroke="#ffffe5" stroke-width="1.51"/><path d="M1614,1086L1744,1089L1722,962Z" fill="#004529" stroke="#004529" stroke-width="1.51"/><path d="M1722,962L1744,1089L1742,829Z" fill="#004529" stroke="#004529" stroke-width="1.51"/><path d="M1742,829L1744,1089L1741,584Z" fill="#004f2d" stroke="#004f2d" stroke-width="1.51"/><path d="M1483,1096L1744,1089L1614,1086Z" fill="#004529" stroke="#004529" stroke-width="1.51"/><path d="M-176,841L-178,1083L-155,950Z" fill="#819e81" stroke="#819e81" stroke-width="1.51"/><path d="M-155,950L-178,1083L-35,1081Z" fill="#819e81" stroke="#819e81" stroke-width="1.51"/><path d="M-35,1081L-178,1083L203,1087Z" fill="#819e81" stroke="#819e81" stroke-width="1.51"/><path d="M-180,192L-178,1083L-176,841Z" fill="#93bd8f" stroke="#93bd8f" stroke-width="1.51"/></svg>